<mxfile host="app.diagrams.net" modified="2021-11-01T01:40:07.446Z" agent="5.0 (Windows NT 10.0; Win64; x64) AppleWebKit/537.36 (KHTML, like Gecko) Chrome/95.0.4638.54 Safari/537.36" etag="kGuCrm1CEJE7GwdWPWLE" version="15.6.3" type="github">
  <diagram id="prtHgNgQTEPvFCAcTncT" name="Page-1">
    <mxGraphModel dx="1038" dy="547" grid="1" gridSize="10" guides="1" tooltips="1" connect="1" arrows="1" fold="1" page="1" pageScale="1" pageWidth="827" pageHeight="1169" math="0" shadow="0">
      <root>
        <mxCell id="0" />
        <mxCell id="1" parent="0" />
        <mxCell id="dNxyNK7c78bLwvsdeMH5-19" value="Pool" style="swimlane;html=1;childLayout=stackLayout;resizeParent=1;resizeParentMax=0;horizontal=0;startSize=20;horizontalStack=0;" parent="1" vertex="1">
          <mxGeometry x="127" y="340" width="1160" height="120" as="geometry" />
        </mxCell>
        <mxCell id="dNxyNK7c78bLwvsdeMH5-35" style="edgeStyle=orthogonalEdgeStyle;rounded=0;orthogonalLoop=1;jettySize=auto;html=1;endArrow=classic;endFill=1;" parent="dNxyNK7c78bLwvsdeMH5-19" edge="1">
          <mxGeometry relative="1" as="geometry">
            <mxPoint x="300" y="200" as="sourcePoint" />
            <mxPoint x="300" y="200" as="targetPoint" />
          </mxGeometry>
        </mxCell>
        <mxCell id="dNxyNK7c78bLwvsdeMH5-20" value="Customer" style="swimlane;html=1;startSize=20;horizontal=0;" parent="dNxyNK7c78bLwvsdeMH5-19" vertex="1">
          <mxGeometry x="20" width="1140" height="120" as="geometry" />
        </mxCell>
        <mxCell id="dNxyNK7c78bLwvsdeMH5-25" value="" style="edgeStyle=orthogonalEdgeStyle;rounded=0;orthogonalLoop=1;jettySize=auto;html=1;" parent="dNxyNK7c78bLwvsdeMH5-20" source="dNxyNK7c78bLwvsdeMH5-23" target="dNxyNK7c78bLwvsdeMH5-24" edge="1">
          <mxGeometry relative="1" as="geometry" />
        </mxCell>
        <mxCell id="dNxyNK7c78bLwvsdeMH5-23" value="" style="ellipse;whiteSpace=wrap;html=1;" parent="dNxyNK7c78bLwvsdeMH5-20" vertex="1">
          <mxGeometry x="40" y="40" width="40" height="40" as="geometry" />
        </mxCell>
        <mxCell id="dNxyNK7c78bLwvsdeMH5-24" value="Submit a claim" style="rounded=0;whiteSpace=wrap;html=1;fontFamily=Helvetica;fontSize=12;fontColor=#000000;align=center;" parent="dNxyNK7c78bLwvsdeMH5-20" vertex="1">
          <mxGeometry x="120" y="30" width="80" height="60" as="geometry" />
        </mxCell>
        <mxCell id="dNxyNK7c78bLwvsdeMH5-32" value="" style="ellipse;whiteSpace=wrap;html=1;" parent="dNxyNK7c78bLwvsdeMH5-20" vertex="1">
          <mxGeometry x="1033" y="40" width="40" height="40" as="geometry" />
        </mxCell>
        <mxCell id="LVYipWUt2HfuR8H8bvmg-3" value="Pool" style="swimlane;html=1;childLayout=stackLayout;resizeParent=1;resizeParentMax=0;horizontal=0;startSize=20;horizontalStack=0;" vertex="1" parent="1">
          <mxGeometry x="127" y="530" width="1160" height="220" as="geometry" />
        </mxCell>
        <mxCell id="LVYipWUt2HfuR8H8bvmg-15" value="Customer Service" style="swimlane;html=1;startSize=20;horizontal=0;" vertex="1" parent="LVYipWUt2HfuR8H8bvmg-3">
          <mxGeometry x="20" width="1140" height="220" as="geometry" />
        </mxCell>
        <mxCell id="LVYipWUt2HfuR8H8bvmg-16" value="" style="edgeStyle=orthogonalEdgeStyle;rounded=0;orthogonalLoop=1;jettySize=auto;html=1;endArrow=classic;endFill=1;" edge="1" parent="LVYipWUt2HfuR8H8bvmg-15" source="LVYipWUt2HfuR8H8bvmg-17" target="LVYipWUt2HfuR8H8bvmg-18">
          <mxGeometry relative="1" as="geometry" />
        </mxCell>
        <mxCell id="LVYipWUt2HfuR8H8bvmg-17" value="check documents" style="rounded=0;whiteSpace=wrap;html=1;fontFamily=Helvetica;fontSize=12;fontColor=#000000;align=center;" vertex="1" parent="LVYipWUt2HfuR8H8bvmg-15">
          <mxGeometry x="120" y="30" width="80" height="60" as="geometry" />
        </mxCell>
        <mxCell id="LVYipWUt2HfuR8H8bvmg-18" value="" style="rhombus;whiteSpace=wrap;html=1;fontFamily=Helvetica;fontSize=12;fontColor=#000000;align=center;" vertex="1" parent="LVYipWUt2HfuR8H8bvmg-15">
          <mxGeometry x="260" y="40" width="40" height="40" as="geometry" />
        </mxCell>
        <mxCell id="dNxyNK7c78bLwvsdeMH5-30" value="email notify the outcome" style="rounded=0;whiteSpace=wrap;html=1;fontFamily=Helvetica;fontSize=12;fontColor=#000000;align=center;" parent="LVYipWUt2HfuR8H8bvmg-15" vertex="1">
          <mxGeometry x="773" y="30" width="80" height="60" as="geometry" />
        </mxCell>
        <mxCell id="LVYipWUt2HfuR8H8bvmg-67" value="reject" style="rounded=0;whiteSpace=wrap;html=1;fontFamily=Helvetica;fontSize=12;fontColor=#000000;align=center;" vertex="1" parent="LVYipWUt2HfuR8H8bvmg-15">
          <mxGeometry x="490" y="30" width="83" height="60" as="geometry" />
        </mxCell>
        <mxCell id="LVYipWUt2HfuR8H8bvmg-69" value="" style="endArrow=classic;html=1;rounded=0;exitX=1;exitY=0.5;exitDx=0;exitDy=0;entryX=0;entryY=0.5;entryDx=0;entryDy=0;" edge="1" parent="LVYipWUt2HfuR8H8bvmg-15" source="LVYipWUt2HfuR8H8bvmg-18" target="LVYipWUt2HfuR8H8bvmg-67">
          <mxGeometry width="50" height="50" relative="1" as="geometry">
            <mxPoint x="453" y="25" as="sourcePoint" />
            <mxPoint x="453" y="85" as="targetPoint" />
          </mxGeometry>
        </mxCell>
        <mxCell id="LVYipWUt2HfuR8H8bvmg-71" value="" style="endArrow=classic;html=1;rounded=0;exitX=1;exitY=0.5;exitDx=0;exitDy=0;entryX=0;entryY=0.5;entryDx=0;entryDy=0;" edge="1" parent="LVYipWUt2HfuR8H8bvmg-15" source="LVYipWUt2HfuR8H8bvmg-67" target="dNxyNK7c78bLwvsdeMH5-30">
          <mxGeometry width="50" height="50" relative="1" as="geometry">
            <mxPoint x="310" y="70" as="sourcePoint" />
            <mxPoint x="500" y="70" as="targetPoint" />
          </mxGeometry>
        </mxCell>
        <mxCell id="LVYipWUt2HfuR8H8bvmg-72" value="accept" style="rounded=0;whiteSpace=wrap;html=1;fontFamily=Helvetica;fontSize=12;fontColor=#000000;align=center;" vertex="1" parent="LVYipWUt2HfuR8H8bvmg-15">
          <mxGeometry x="238.5" y="130" width="83" height="60" as="geometry" />
        </mxCell>
        <mxCell id="LVYipWUt2HfuR8H8bvmg-53" value="" style="endArrow=classic;html=1;rounded=0;exitX=0.5;exitY=1;exitDx=0;exitDy=0;entryX=0.5;entryY=0;entryDx=0;entryDy=0;entryPerimeter=0;" edge="1" parent="LVYipWUt2HfuR8H8bvmg-15" source="LVYipWUt2HfuR8H8bvmg-18" target="LVYipWUt2HfuR8H8bvmg-72">
          <mxGeometry width="50" height="50" relative="1" as="geometry">
            <mxPoint x="453" y="110" as="sourcePoint" />
            <mxPoint x="280" y="120" as="targetPoint" />
          </mxGeometry>
        </mxCell>
        <mxCell id="LVYipWUt2HfuR8H8bvmg-77" value="Phone" style="rounded=0;whiteSpace=wrap;html=1;fontFamily=Helvetica;fontSize=12;fontColor=#000000;align=center;" vertex="1" parent="LVYipWUt2HfuR8H8bvmg-15">
          <mxGeometry x="413" y="130" width="83" height="60" as="geometry" />
        </mxCell>
        <mxCell id="LVYipWUt2HfuR8H8bvmg-78" value="" style="endArrow=classic;html=1;rounded=0;exitX=1;exitY=0.5;exitDx=0;exitDy=0;entryX=0;entryY=0.5;entryDx=0;entryDy=0;" edge="1" parent="LVYipWUt2HfuR8H8bvmg-15" source="LVYipWUt2HfuR8H8bvmg-72" target="LVYipWUt2HfuR8H8bvmg-77">
          <mxGeometry width="50" height="50" relative="1" as="geometry">
            <mxPoint x="290" y="90" as="sourcePoint" />
            <mxPoint x="290" y="140" as="targetPoint" />
          </mxGeometry>
        </mxCell>
        <mxCell id="LVYipWUt2HfuR8H8bvmg-80" value="" style="endArrow=classic;html=1;rounded=0;exitX=1;exitY=0.5;exitDx=0;exitDy=0;entryX=0.5;entryY=1;entryDx=0;entryDy=0;" edge="1" parent="LVYipWUt2HfuR8H8bvmg-15" source="LVYipWUt2HfuR8H8bvmg-77" target="dNxyNK7c78bLwvsdeMH5-30">
          <mxGeometry width="50" height="50" relative="1" as="geometry">
            <mxPoint x="543" y="170" as="sourcePoint" />
            <mxPoint x="743" y="170" as="targetPoint" />
            <Array as="points">
              <mxPoint x="813" y="160" />
            </Array>
          </mxGeometry>
        </mxCell>
        <mxCell id="LVYipWUt2HfuR8H8bvmg-29" value="Pool" style="swimlane;html=1;childLayout=stackLayout;resizeParent=1;resizeParentMax=0;horizontal=0;startSize=20;horizontalStack=0;" vertex="1" parent="1">
          <mxGeometry x="130" y="780" width="1160" height="120" as="geometry" />
        </mxCell>
        <mxCell id="LVYipWUt2HfuR8H8bvmg-30" value="" style="edgeStyle=orthogonalEdgeStyle;rounded=0;orthogonalLoop=1;jettySize=auto;html=1;dashed=1;endArrow=none;endFill=0;" edge="1" parent="LVYipWUt2HfuR8H8bvmg-29">
          <mxGeometry relative="1" as="geometry">
            <mxPoint x="180" y="90" as="sourcePoint" />
            <mxPoint x="180" y="90" as="targetPoint" />
          </mxGeometry>
        </mxCell>
        <mxCell id="LVYipWUt2HfuR8H8bvmg-47" value="A garage" style="swimlane;html=1;startSize=20;horizontal=0;" vertex="1" parent="LVYipWUt2HfuR8H8bvmg-29">
          <mxGeometry x="20" width="1140" height="120" as="geometry">
            <mxRectangle x="20" y="240" width="430" height="20" as="alternateBounds" />
          </mxGeometry>
        </mxCell>
        <mxCell id="LVYipWUt2HfuR8H8bvmg-74" value="" style="ellipse;whiteSpace=wrap;html=1;" vertex="1" parent="LVYipWUt2HfuR8H8bvmg-47">
          <mxGeometry x="50" y="60" width="40" height="40" as="geometry" />
        </mxCell>
        <mxCell id="LVYipWUt2HfuR8H8bvmg-75" value="" style="ellipse;whiteSpace=wrap;html=1;" vertex="1" parent="LVYipWUt2HfuR8H8bvmg-47">
          <mxGeometry x="1030" y="60" width="40" height="40" as="geometry" />
        </mxCell>
        <mxCell id="LVYipWUt2HfuR8H8bvmg-76" value="" style="edgeStyle=orthogonalEdgeStyle;rounded=0;orthogonalLoop=1;jettySize=auto;html=1;endArrow=classic;endFill=1;exitX=1;exitY=0.5;exitDx=0;exitDy=0;entryX=0;entryY=0.5;entryDx=0;entryDy=0;" edge="1" parent="LVYipWUt2HfuR8H8bvmg-47" source="LVYipWUt2HfuR8H8bvmg-74" target="LVYipWUt2HfuR8H8bvmg-75">
          <mxGeometry relative="1" as="geometry">
            <mxPoint x="207" y="-180" as="sourcePoint" />
            <mxPoint x="267" y="-180" as="targetPoint" />
          </mxGeometry>
        </mxCell>
        <mxCell id="LVYipWUt2HfuR8H8bvmg-51" value="" style="endArrow=classic;html=1;rounded=0;exitX=0.5;exitY=1;exitDx=0;exitDy=0;entryX=0.5;entryY=0;entryDx=0;entryDy=0;" edge="1" parent="1" source="dNxyNK7c78bLwvsdeMH5-24" target="LVYipWUt2HfuR8H8bvmg-17">
          <mxGeometry width="50" height="50" relative="1" as="geometry">
            <mxPoint x="600" y="640" as="sourcePoint" />
            <mxPoint x="650" y="590" as="targetPoint" />
          </mxGeometry>
        </mxCell>
        <mxCell id="LVYipWUt2HfuR8H8bvmg-61" value="" style="endArrow=classic;html=1;rounded=0;entryX=0;entryY=0.5;entryDx=0;entryDy=0;" edge="1" parent="1" target="dNxyNK7c78bLwvsdeMH5-32">
          <mxGeometry width="50" height="50" relative="1" as="geometry">
            <mxPoint x="350" y="400" as="sourcePoint" />
            <mxPoint x="650" y="580" as="targetPoint" />
          </mxGeometry>
        </mxCell>
        <mxCell id="LVYipWUt2HfuR8H8bvmg-66" value="" style="html=1;verticalAlign=bottom;labelBackgroundColor=none;endArrow=block;endFill=1;dashed=1;rounded=0;" edge="1" parent="1">
          <mxGeometry width="160" relative="1" as="geometry">
            <mxPoint x="959.5" y="560" as="sourcePoint" />
            <mxPoint x="959.5" y="420" as="targetPoint" />
          </mxGeometry>
        </mxCell>
        <mxCell id="LVYipWUt2HfuR8H8bvmg-79" value="" style="html=1;verticalAlign=bottom;labelBackgroundColor=none;endArrow=block;endFill=1;dashed=1;rounded=0;exitX=0.5;exitY=1;exitDx=0;exitDy=0;" edge="1" parent="1" source="LVYipWUt2HfuR8H8bvmg-77">
          <mxGeometry width="160" relative="1" as="geometry">
            <mxPoint x="969.5" y="570" as="sourcePoint" />
            <mxPoint x="602" y="840" as="targetPoint" />
          </mxGeometry>
        </mxCell>
      </root>
    </mxGraphModel>
  </diagram>
</mxfile>
